<?xml version="1.0" encoding="UTF-8"?>
<svg width="100px" height="100px" viewBox="0 0 100 100" version="1.1" xmlns="http://www.w3.org/2000/svg" xmlns:xlink="http://www.w3.org/1999/xlink">
    <!-- Generator: Sketch 49.3 (51167) - http://www.bohemiancoding.com/sketch -->
    <title>Shape + Shape + Shape Mask</title>
    <desc>Created with Sketch.</desc>
    <defs>
        <circle id="path-1" cx="50" cy="50" r="50"></circle>
    </defs>
    <g id="Welcome" stroke="none" stroke-width="1" fill="none" fill-rule="evenodd">
        <g id="Tablet-Portrait" transform="translate(-269.000000, -130.000000)">
            <g id="Shape-+-Shape-+-Shape-Mask" transform="translate(269.000000, 130.000000)">
                <mask id="mask-2" fill="white">
                    <use xlink:href="#path-1"></use>
                </mask>
                <use id="Mask" fill="#FA7268" xlink:href="#path-1"></use>
                <path d="M42.7234444,13.7568186 C42.4185805,13.2849107 41.9016577,13.0006307 41.3474582,13 L11.6499151,13 C10.7387264,13 10,13.7530345 10,14.6818717 L10,85.3182755 C9.99984536,86.1176651 10.55157,86.8065277 11.3198393,86.9664057 C11.4284209,86.9886372 11.5390133,86.9999895 11.6497604,86.9999895 C12.3079013,87.0023545 12.9043269,86.6058131 13.1675833,85.990898 L42.8651264,15.3544942 C43.0863112,14.8318164 43.0329485,14.2306186 42.7234444,13.7568186 Z" id="Shape" fill="#FCFCFC" fill-rule="nonzero" mask="url(#mask-2)"></path>
                <path d="M51.5443336,39.0543426 C51.289333,38.4173968 50.6791754,38.0004753 50.0010489,38 C49.3302661,37.9998416 48.7246398,38.4072589 48.4643267,39.0340668 L35.1310158,71.1374986 C34.7738275,71.9976369 35.1721097,72.9883007 36.0203928,73.3504141 C36.225237,73.4378536 36.4453937,73.4828406 36.6675817,73.4828406 L48.8443276,73.4828406 L53.4410565,85.9051058 C53.6854321,86.5637531 54.3068397,87 55.00106,87 L68.3343709,87 C69.2548417,86.9993664 70.0006246,86.2425081 69.9999996,85.3093452 C69.9998434,85.0918554 69.9582808,84.8765832 69.8776556,84.6750923 L51.5443336,39.0543426 Z" id="Shape" fill="#FCFCFC" fill-rule="nonzero" mask="url(#mask-2)"></path>
                <path d="M89.350534,13.0000109 L59.6555072,13.0000109 C58.7443957,12.9966998 58.0032573,13.7470538 58.0000094,14.6758909 C57.9992361,14.9094009 58.0460986,15.1405459 58.1376582,15.3545048 L87.832685,85.9908981 C88.0959191,86.6058132 88.6924489,87.0023545 89.3503793,86.9999895 C89.461117,86.9998318 89.5717,86.9886372 89.6802725,86.9664057 C90.4484766,86.8065277 91.0001546,86.1175076 90.9999999,85.3182757 L90.9999999,14.6818824 C91.0003092,13.7530453 90.2616454,13.0000109 89.350534,13.0000109 Z" id="Shape" fill="#FCFCFC" fill-rule="nonzero" mask="url(#mask-2)"></path>
            </g>
        </g>
    </g>
</svg>