<?xml version="1.0" encoding="UTF-8"?>
<svg width="100px" height="100px" viewBox="0 0 100 100" version="1.1" xmlns="http://www.w3.org/2000/svg" xmlns:xlink="http://www.w3.org/1999/xlink">
    <!-- Generator: Sketch 49.3 (51167) - http://www.bohemiancoding.com/sketch -->
    <title>github</title>
    <desc>Created with Sketch.</desc>
    <defs></defs>
    <g id="Welcome" stroke="none" stroke-width="1" fill="none" fill-rule="evenodd">
        <g id="Tablet-Portrait" transform="translate(-146.000000, -130.000000)">
            <g id="github" transform="translate(146.000000, 130.000000)">
                <g id="Group-2">
                    <circle id="Oval-4" fill="#FA7268" cx="50" cy="50" r="50"></circle>
                    <path d="M93.1963554,24.8765376 C88.7298405,17.2236902 82.6712984,11.1649203 75.0191344,6.69886105 C67.3658314,2.23257403 59.0107062,0 49.947836,0 C40.8861048,0 32.528246,2.2332574 24.8765376,6.69886105 C17.2236902,11.1646925 11.1653759,17.2236902 6.69886105,24.8765376 C2.23302961,32.5291572 0,40.885877 0,49.9464692 C0,60.8302961 3.17539863,70.6173121 9.52779043,79.3100228 C15.8794989,88.0034169 24.0849658,94.0189066 34.143508,97.3571754 C35.3143508,97.5744875 36.1810934,97.4216401 36.7446469,96.9025057 C37.3084282,96.3826879 37.5899772,95.7316629 37.5899772,94.952164 C37.5899772,94.8220957 37.5788155,93.6519362 37.5571754,91.4403189 C37.5348519,89.2287016 37.5243736,87.2993166 37.5243736,85.6530752 L36.0284738,85.9118451 C35.0747153,86.0865604 33.8715262,86.1605923 32.4189066,86.1396355 C30.9669704,86.1193622 29.4596811,85.9671982 27.8990888,85.6842825 C26.3378132,85.4038724 24.8856492,84.7535308 23.5414579,83.7346241 C22.1979499,82.7157175 21.2441913,81.3820046 20.68041,79.7355353 L20.0300683,78.2389522 C19.5965831,77.2425968 18.914123,76.1357631 17.9817768,74.9225513 C17.0494305,73.7082005 16.1066059,72.8849658 15.1528474,72.4514806 L14.6974943,72.1255125 C14.3940774,71.9088838 14.1125285,71.6476082 13.852164,71.3444191 C13.5920273,71.0412301 13.3972665,70.7378132 13.2671982,70.4339408 C13.1369021,70.1298405 13.2448747,69.88041 13.5922551,69.684738 C13.9396355,69.4890661 14.567426,69.3940774 15.4783599,69.3940774 L16.7785877,69.5883827 C17.6457859,69.7621868 18.718451,70.2813212 19.9979499,71.1489749 C21.2767654,72.0159453 22.3280182,73.1430524 23.1519362,74.5298405 C24.1496583,76.3079727 25.3517084,77.6628702 26.7615034,78.5952164 C28.1701595,79.5275626 29.5904328,79.9929385 31.0209567,79.9929385 C32.4514806,79.9929385 33.6870159,79.8845103 34.7280182,79.6687927 C35.7678815,79.4519362 36.743508,79.1259681 37.6544419,78.6927107 C38.0446469,75.7865604 39.1070615,73.5539863 40.8407745,71.9933941 C38.3697039,71.733713 36.1480638,71.3425968 34.1747153,70.8225513 C32.2025057,70.3018223 30.1644647,69.4567198 28.061959,68.2849658 C25.9583144,67.1148064 24.2132118,65.6617312 22.8261959,63.928246 C21.4389522,62.1938497 20.3004556,59.9168565 19.4123007,57.0993166 C18.5236902,54.2806378 18.0792711,51.0291572 18.0792711,47.3439636 C18.0792711,42.0968109 19.7922551,37.6316629 23.2175399,33.9460137 C21.6129841,30.001139 21.7644647,25.5788155 23.6724374,20.6794989 C24.9298405,20.2888383 26.794533,20.5820046 29.2656036,21.5571754 C31.7371298,22.5328018 33.546697,23.3685649 34.6961276,24.0615034 C35.8455581,24.7542141 36.7665148,25.3412301 37.4603645,25.8173121 C41.4933941,24.6904328 45.6553531,24.1268793 49.9473804,24.1268793 C54.2394077,24.1268793 58.4022779,24.6904328 62.4355353,25.8173121 L64.9068337,24.2571754 C66.5968109,23.2161731 68.5924829,22.2621868 70.8890661,21.3949886 C73.1870159,20.528246 74.9441913,20.2895216 76.1587699,20.6801822 C78.1091116,25.5797267 78.2829157,30.0018223 76.6779043,33.946697 C80.1029613,37.6323462 81.8166287,42.0986333 81.8166287,47.3446469 C81.8166287,51.0298405 81.370615,54.2915718 80.4833713,57.1318907 C79.5949886,59.9726651 78.446697,62.2473804 77.038041,63.96082 C75.6277904,65.6740319 73.8715262,67.1157175 71.7690205,68.2856492 C69.6660592,69.456492 67.6273349,70.3015945 65.6551253,70.8223235 C63.6820046,71.3430524 61.4603645,71.7343964 58.9892938,71.994533 C61.2430524,73.9448747 62.3701595,77.0234624 62.3701595,81.2289294 L62.3701595,94.9503417 C62.3701595,95.7298405 62.6412301,96.3806378 63.1838269,96.9006834 C63.7257403,97.4198178 64.581549,97.5726651 65.7523918,97.3551253 C75.8123007,94.0173121 84.0177677,88.0015945 90.3692483,79.3082005 C96.7200456,70.6154897 99.8965831,60.8284738 99.8965831,49.9446469 C99.8943052,40.8851936 97.6601367,32.5291572 93.1963554,24.8765376 Z" id="Shape" fill="#FCFCFC" fill-rule="nonzero"></path>
                </g>
            </g>
        </g>
    </g>
</svg>