<?xml version="1.0" encoding="UTF-8"?>
<svg width="100px" height="100px" viewBox="0 0 100 100" version="1.1" xmlns="http://www.w3.org/2000/svg" xmlns:xlink="http://www.w3.org/1999/xlink">
    <!-- Generator: Sketch 49.3 (51167) - http://www.bohemiancoding.com/sketch -->
    <title>html</title>
    <desc>Created with Sketch.</desc>
    <defs></defs>
    <g id="Welcome" stroke="none" stroke-width="1" fill="none" fill-rule="evenodd">
        <g id="Tablet-Portrait" transform="translate(-237.000000, -10.000000)">
            <g id="html" transform="translate(237.000000, 10.000000)">
                <circle id="Oval" fill="#FCFCFC" cx="50" cy="50" r="50"></circle>
                <g transform="translate(20.000000, 16.000000)" fill="#FA7268" fill-rule="nonzero" id="Shape">
                    <path d="M0,0 L5.5450269,62.0148685 L30.4131266,69 L55.4542144,62.0148685 L61,0 L0,0 Z M48.9556286,20.2261276 L19.755543,20.2261276 L20.4054623,28.0317598 L48.3060128,28.0317598 L46.1401716,51.4920075 L30.5865699,55.7606654 L30.5865699,55.8040166 L30.4131266,55.8040166 L14.7294804,51.4920075 L13.7765284,39.5036646 L21.3584142,39.5036646 L21.9215359,45.5412628 L30.4129749,47.826037 L38.9478125,45.5412628 L39.9012197,35.7083957 L13.38685,35.7083957 L11.3507499,12.6793942 L49.6497053,12.6793942 L48.9556286,20.2261276 Z"></path>
                </g>
            </g>
        </g>
    </g>
</svg>