<?xml version="1.0" encoding="UTF-8"?>
<svg width="100px" height="100px" viewBox="0 0 100 100" version="1.1" xmlns="http://www.w3.org/2000/svg" xmlns:xlink="http://www.w3.org/1999/xlink">
    <!-- Generator: Sketch 49.3 (51167) - http://www.bohemiancoding.com/sketch -->
    <title>javascript</title>
    <desc>Created with Sketch.</desc>
    <defs>
        <circle id="path-1" cx="50" cy="50" r="50"></circle>
    </defs>
    <g id="Welcome" stroke="none" stroke-width="1" fill="none" fill-rule="evenodd">
        <g id="Tablet-Portrait" transform="translate(-468.000000, -10.000000)">
            <g id="javascript" transform="translate(468.000000, 10.000000)">
                <mask id="mask-2" fill="white">
                    <use xlink:href="#path-1"></use>
                </mask>
                <use id="Mask" fill="#FCFCFC" xlink:href="#path-1"></use>
                <g mask="url(#mask-2)" id="Group">
                    <g transform="translate(4.000000, 4.000000)">
                        <g>
                            <path d="M69.3379147,41.0765796 C67.7845972,36.5609311 61.4152322,36.5609311 60.1727962,40.2979667 C58.9301422,44.0350024 63.1244265,46.2148124 69.6487962,48.3950594 C76.1731659,50.5750879 80.2122275,56.3365606 79.4354597,61.4747933 C78.6586919,66.6130261 76.4838294,73.3089216 63.5905308,73.3089216 C55.5322464,73.3089216 51.0538957,68.260285 48.828237,64.4740808 L56.1339526,60.0733777 C56.1339526,60.0733777 58.6194787,65.367639 63.2796493,65.367639 C67.9400379,65.367639 69.804019,63.8106318 69.804019,60.2291876 C69.804019,55.8693492 54.7356398,54.312342 52.4055545,46.8380523 C50.0754692,39.3637625 53.1823223,28.7754584 64.0561991,29.5538527 C70.8526445,30.0405131 74.6754408,33.3857292 76.5869479,35.8262423 L69.3379147,41.0765796 Z" id="Shape" fill="#FA7268" fill-rule="nonzero"></path>
                            <path d="M35.4731943,30.3326841 C35.4731943,30.3326841 35.4731943,56.647962 35.4731943,60.2294062 C35.4731943,63.8106318 32.3663412,65.6794774 29.2594882,65.0564561 C26.1526351,64.4336532 24.7545403,60.6966176 24.7545403,60.6966176 L17.6088436,65.5236675 C17.6088436,65.5236675 19.1621611,72.6863373 28.9488246,73.3093587 C38.7354882,73.9321615 44.3276493,68.0150974 44.3276493,63.0322375 C44.3276493,58.0493777 44.3276493,30.3326841 44.3276493,30.3326841 L35.4731943,30.3326841 Z" id="Shape" fill="#FA7268" fill-rule="nonzero"></path>
                            <path d="M0.211033175,0.0465463183 L0.211033175,85.4428694 C2.52324171,87.7902898 5.04255924,89.9296722 7.73977251,91.8387268 L72.0516967,91.8387268 C74.2067204,90.3134062 76.2477251,88.6397055 78.1635924,86.8289881 L5.20890047,86.8289881 L5.20890047,5.05628504 L86.7854313,5.05628504 L86.7854313,76.4600855 C88.7536209,73.4140333 90.4325118,70.1625653 91.7856967,66.7465463 L91.7856967,0.0465463183 L0.211033175,0.0465463183 Z" id="Shape" fill="#FA7268" fill-rule="nonzero"></path>
                        </g>
                    </g>
                </g>
            </g>
        </g>
    </g>
</svg>