<?xml version="1.0" encoding="UTF-8"?>
<svg width="32px" height="32px" viewBox="0 0 32 32" version="1.1" xmlns="http://www.w3.org/2000/svg" xmlns:xlink="http://www.w3.org/1999/xlink">
    <!-- Generator: Sketch 49.3 (51167) - http://www.bohemiancoding.com/sketch -->
    <title>link</title>
    <desc>Created with Sketch.</desc>
    <defs></defs>
    <g id="Welcome" stroke="none" stroke-width="1" fill="none" fill-rule="evenodd">
        <g id="Tablet-Portrait" transform="translate(-338.000000, -483.000000)" fill="#FFFFFF" fill-rule="nonzero">
            <g id="link" transform="translate(338.000000, 483.000000)">
                <path d="M15.9995733,0 C7.16341333,0 0.000106666667,7.16384 0.000106666667,15.99968 C0.000106666667,24.83552 7.16341333,32 15.9995733,32 C24.8357333,32 31.9998933,24.8359467 31.9998933,15.99968 C31.9998933,7.16341333 24.8357333,0 15.9995733,0 Z M24.03872,13.1522133 L20.1255467,17.0653867 C19.70112,17.4898133 19.1368533,17.72352 18.5367467,17.72352 C17.9367467,17.72352 17.3723733,17.4897067 16.9479467,17.0656 L16.7946667,16.91232 L16.3780267,17.32896 L16.5309867,17.48192 C17.4071467,18.35808 17.4071467,19.78368 16.5309867,20.65984 L12.6183467,24.5730133 C12.19392,24.99744 11.6296533,25.2311467 11.0292267,25.2311467 C10.4289067,25.2311467 9.86453333,24.9973333 9.43989333,24.5726933 L7.96096,23.0933333 C7.0848,22.2177067 7.0848,20.7922133 7.96064,19.9157333 L11.8741333,16.0027733 C12.29856,15.5783467 12.8628267,15.34464 13.4632533,15.34464 C14.06368,15.34464 14.6276267,15.5784533 15.0523733,16.0027733 L15.20512,16.15552 L15.62176,15.73888 L15.4690133,15.5861333 C14.5928533,14.7102933 14.5928533,13.2846933 15.46848,12.4085333 L19.3819733,8.49536 C19.8066133,8.07072 20.3709867,7.83690667 20.9710933,7.83690667 C21.5712,7.83690667 22.1354667,8.07072 22.5602133,8.49504 L24.0394667,9.97482667 C24.91488,10.8504533 24.91488,12.2762667 24.03872,13.1522133 Z" id="Shape"></path>
                <path d="M15.20416,18.5022933 L14.4475733,19.25888 L13.2740267,18.0856533 L14.0306133,17.3290667 L13.8778667,17.17632 C13.7669333,17.0657067 13.61952,17.00448 13.4629333,17.00448 C13.3060267,17.00448 13.1586133,17.0656 13.04768,17.17632 L9.13450667,21.08896 C8.90570667,21.3179733 8.90570667,21.6903467 9.13450667,21.9191467 L10.6139733,23.3989333 C10.83616,23.62112 11.2228267,23.6208 11.44448,23.3992533 L15.35712,19.48608 C15.58624,19.2570667 15.58624,18.8843733 15.35712,18.6552533 L15.20416,18.5022933 Z" id="Shape"></path>
                <path d="M21.38592,9.66858667 C21.2749867,9.55765333 21.1272533,9.49653333 20.9703467,9.49653333 C20.81344,9.49653333 20.6657067,9.55765333 20.5547733,9.66890667 L16.6416,13.5818667 C16.41312,13.81088 16.41312,14.1832533 16.64192,14.4123733 L16.79488,14.56512 L17.9554133,13.4042667 L19.12896,14.5778133 L17.9684267,15.7386667 L18.1213867,15.8916267 C18.3435733,16.1131733 18.7297067,16.1134933 18.9518933,15.8913067 L22.8648533,11.9786667 C23.0936533,11.7496533 23.0936533,11.37728 22.8648533,11.14816 L21.38592,9.66858667 Z" id="Shape"></path>
            </g>
        </g>
    </g>
</svg>