<?xml version="1.0" encoding="UTF-8"?>
<svg width="57px" height="57px" viewBox="0 0 57 57" version="1.1" xmlns="http://www.w3.org/2000/svg" xmlns:xlink="http://www.w3.org/1999/xlink">
    <!-- Generator: Sketch 49.3 (51167) - http://www.bohemiancoding.com/sketch -->
    <title>logo</title>
    <desc>Created with Sketch.</desc>
    <defs></defs>
    <g id="Welcome" stroke="none" stroke-width="1" fill="none" fill-rule="evenodd">
        <g id="Mobile-Portrait" transform="translate(-160.000000, -68.000000)">
            <g id="logo" transform="translate(160.000000, 68.000000)">
                <circle id="Oval-2" fill="#FA7268" cx="28.5" cy="28.5" r="28.5"></circle>
                <path d="M27.26,21.06 C27.2399999,21.4400019 27.1750006,21.834998 27.065,22.245 C26.9549994,22.6550021 26.8200008,23.0249983 26.66,23.355 C26.4999992,23.6850017 26.3300009,23.9599989 26.15,24.18 C25.9699991,24.4000011 25.8000008,24.51 25.64,24.51 C25.4199989,24.4899999 25.2900002,24.3400014 25.25,24.06 C25.25,23.9999997 25.2749997,23.9050006 25.325,23.775 C25.3750002,23.6449993 25.4299997,23.5000008 25.49,23.34 C25.5500003,23.1799992 25.6049997,23.0200008 25.655,22.86 C25.7050002,22.6999992 25.73,22.5600006 25.73,22.44 C25.73,22.1599986 25.6650006,21.9250009 25.535,21.735 C25.4049994,21.5449991 25.2300011,21.45 25.01,21.45 C24.209996,21.45 23.6000021,21.949995 23.18,22.95 C22.7599979,23.950005 22.55,25.4199903 22.55,27.36 C22.55,27.560001 22.5599999,27.6799998 22.58,27.72 C23.0000021,27.6999999 23.3749983,27.685 23.705,27.675 C24.0350016,27.665 24.3599984,27.66 24.68,27.66 C24.7000001,27.7000002 24.71,27.7799994 24.71,27.9 C24.71,28.0800009 24.6700004,28.2099996 24.59,28.29 C24.1299977,28.3900005 23.7650013,28.4749997 23.495,28.545 C23.2249986,28.6150003 23.0200007,28.6799997 22.88,28.74 C22.7399993,28.8000003 22.6550001,28.8649997 22.625,28.935 C22.5949999,29.0050003 22.58,29.0999994 22.58,29.22 C22.58,29.3800008 22.585,29.5399992 22.595,29.7 C22.6050001,29.8600008 22.61,30.0599988 22.61,30.3 C22.61,31.9800084 22.1550046,33.3299949 21.245,34.35 C20.3349955,35.3700051 19.0700081,35.9599992 17.45,36.12 C17.1699986,36.0999999 16.8800015,36.0200007 16.58,35.88 C16.2799985,35.7399993 15.9950013,35.5600011 15.725,35.34 C15.4549987,35.1199989 15.220001,34.8750013 15.02,34.605 C14.819999,34.3349987 14.6800004,34.0600014 14.6,33.78 C14.6,33.0199962 14.7599984,32.2950034 15.08,31.605 C15.4000016,30.9149965 15.8349973,30.3050026 16.385,29.775 C16.9350027,29.2449974 17.5849962,28.8150016 18.335,28.485 C19.0850037,28.1549983 19.8999956,27.9600003 20.78,27.9 C20.78,27.3999975 20.7300005,26.9100024 20.63,26.43 C20.5299995,25.9499976 20.4250006,25.4850023 20.315,25.035 C20.2049994,24.5849977 20.1000005,24.1450021 20,23.715 C19.8999995,23.2849978 19.85,22.8600021 19.85,22.44 C19.85,21.8999973 19.9599989,21.3650027 20.18,20.835 C20.4000011,20.3049974 20.6899982,19.8150022 21.05,19.365 C21.4100018,18.9149978 21.8299976,18.5300016 22.31,18.21 C22.7900024,17.8899984 23.2899974,17.6700006 23.81,17.55 C24.0300011,17.6100003 24.3249981,17.7849986 24.695,18.075 C25.0650019,18.3650015 25.4299982,18.6899982 25.79,19.05 C26.1500018,19.4100018 26.4699986,19.7749982 26.75,20.145 C27.0300014,20.5150019 27.1999997,20.8199988 27.26,21.06 Z M17.36,34.74 C17.8400024,34.539999 18.2949979,34.2500019 18.725,33.87 C19.1550022,33.4899981 19.5299984,33.0600024 19.85,32.58 C20.1700016,32.0999976 20.4249991,31.5900027 20.615,31.05 C20.805001,30.5099973 20.9,29.9800026 20.9,29.46 C20.499998,29.5200003 20.0600024,29.7049985 19.58,30.015 C19.0999976,30.3250016 18.6500021,30.6949979 18.23,31.125 C17.8099979,31.5550021 17.4600014,31.9999977 17.18,32.46 C16.8999986,32.9200023 16.76,33.3199983 16.76,33.66 C16.76,34.1000022 16.959998,34.4599986 17.36,34.74 Z M27,42.93 C26.7199986,42.8499996 26.5600002,42.5500026 26.52,42.03 C26.4399996,41.7699987 26.3850001,41.4600018 26.355,41.1 C26.3249998,40.7399982 26.31,40.3300023 26.31,39.87 C26.31,39.4499979 26.3799993,38.8750036 26.52,38.145 C26.6600007,37.4149964 26.8549988,36.5900046 27.105,35.67 C27.3550013,34.7499954 27.6599982,33.7550053 28.02,32.685 C28.3800018,31.6149946 28.7799978,30.5300055 29.22,29.43 C29.7600027,28.0499931 30.229998,26.855005 30.63,25.845 C31.030002,24.8349949 31.3649987,23.9600037 31.635,23.22 C31.9050013,22.4799963 32.1249991,21.8700024 32.295,21.39 C32.4650008,20.9099976 32.5999995,20.5000017 32.7,20.16 C32.7800004,19.9199988 32.8999992,19.6300017 33.06,19.29 C33.2200008,18.9499983 33.4049989,18.6050017 33.615,18.255 C33.825001,17.9049982 34.0399989,17.5750015 34.26,17.265 C34.4800011,16.9549985 34.6799991,16.7200008 34.86,16.56 C35.5600035,16.6600005 36.2199969,16.8399987 36.84,17.1 C37.4600031,17.3600013 37.8399993,17.6099988 37.98,17.85 C37.6999986,18.1100013 37.3800018,18.5149973 37.02,19.065 C36.6599982,19.6150028 36.3100017,20.2149968 35.97,20.865 C35.6299983,21.5150032 35.3200014,22.1799966 35.04,22.86 C34.7599986,23.5400034 34.5500007,24.1399974 34.41,24.66 C34.610001,24.3199983 34.8699984,23.950002 35.19,23.55 C35.5100016,23.149998 35.9999967,22.6000035 36.66,21.9 C37.4000037,21.1399962 38.0949967,20.555002 38.745,20.145 C39.3950032,19.734998 39.9599976,19.53 40.44,19.53 C41.2000038,19.53 41.8249975,19.7399979 42.315,20.16 C42.8050024,20.5800021 43.05,21.1199967 43.05,21.78 C43.05,23.2200072 42.8100024,24.6449929 42.33,26.055 C41.8499976,27.4650071 41.1600045,28.7399943 40.26,29.88 C39.9199983,30.3200022 39.5200023,30.739998 39.06,31.14 C38.5999977,31.540002 38.1200025,31.8949984 37.62,32.205 C37.1199975,32.5150016 36.6300024,32.7599991 36.15,32.94 C35.6699976,33.1200009 35.2400019,33.21 34.86,33.21 C34.4999982,33.21 34.1850014,33.1350008 33.915,32.985 C33.6449986,32.8349992 33.4600005,32.6500011 33.36,32.43 C34.1400039,31.9699977 34.8999963,31.3300041 35.64,30.51 C36.3800037,29.6899959 37.0649968,28.7450053 37.695,27.675 C38.3250031,26.6049947 38.8749976,25.4500062 39.345,24.21 C39.8150024,22.9699938 40.1699988,21.7100064 40.41,20.43 C39.6499962,20.830002 38.965003,21.2649977 38.355,21.735 C37.744997,22.2050024 37.140003,22.8199962 36.54,23.58 C35.8199964,24.4600044 35.2500021,25.1699973 34.83,25.71 C34.4099979,26.2500027 34.0650014,26.7099981 33.795,27.09 C33.5249987,27.4700019 33.3050008,27.8249984 33.135,28.155 C32.9649991,28.4850017 32.780001,28.8899976 32.58,29.37 C32.2999986,30.0100032 31.9750018,30.8549947 31.605,31.905 C31.2349981,32.9550052 30.855002,34.1299935 30.465,35.43 C30.074998,36.7300065 29.685002,38.1149926 29.295,39.585 C28.904998,41.0550073 28.5300018,42.5199927 28.17,43.98 C27.9499989,43.9399998 27.7600008,43.7800014 27.6,43.5 C27.4399992,43.3199991 27.3250003,43.1900004 27.255,43.11 C27.1849996,43.0299996 27.1000005,42.9700002 27,42.93 Z" id="sp" fill="#FFFFFF"></path>
            </g>
        </g>
    </g>
</svg>