<?xml version="1.0" encoding="UTF-8"?>
<svg width="100px" height="100px" viewBox="0 0 100 100" version="1.1" xmlns="http://www.w3.org/2000/svg" xmlns:xlink="http://www.w3.org/1999/xlink">
    <!-- Generator: Sketch 49.3 (51167) - http://www.bohemiancoding.com/sketch -->
    <title>react</title>
    <desc>Created with Sketch.</desc>
    <defs></defs>
    <g id="Welcome" stroke="none" stroke-width="1" fill="none" fill-rule="evenodd">
        <g id="Tablet-Portrait" transform="translate(-590.000000, -10.000000)" fill-rule="nonzero">
            <g id="react" transform="translate(590.000000, 10.000000)">
                <path d="M100,50 C100,66.4734375 92.0326172,81.0857422 79.7427734,90.1958984 C74.5978516,94.0082031 68.6958984,96.8570313 62.3039062,98.4734375 C58.3673828,99.4714844 54.246875,100 50,100 C45.753125,100 41.6306641,99.4714844 37.6939453,98.4734375 C31.3021484,96.8570313 25.4,94.0082031 20.2550781,90.19375 C7.96523437,81.0835938 0,66.4714844 0,50 C0,22.3857422 22.3857422,0 50,0 C77.6142578,0 100,22.3857422 100,50 Z" id="Shape" fill="#FCFCFC"></path>
                <g id="Group" transform="translate(1.315789, 13.157895)" fill="#FA7268">
                    <path d="M78.5096438,65.0515501 C78.2746301,63.4784907 77.9641461,61.8583724 77.5801469,60.2017394 C77.2409216,58.7470109 76.8467554,57.2635785 76.3994082,55.7578857 C75.2225798,51.8037581 73.6721148,47.6945896 71.7925914,43.5405101 C70.9692613,41.7245404 70.082583,39.9005648 69.1366624,38.0785418 C68.3031653,36.4728731 67.4246988,34.8650565 66.4991122,33.2673937 C65.5756764,31.6677782 64.6236948,30.1048726 63.6451226,28.5808249 C62.5398542,26.8527247 61.4019341,25.1755888 60.2374234,23.5554704 C57.5773885,19.8522591 54.7888977,16.4552241 51.9470302,13.4598504 C50.8663972,12.3193043 49.7773568,11.2379236 48.684406,10.2198089 C47.4403192,9.05680726 46.1899757,7.9775745 44.9415874,6.98796864 C36.7921634,0.526240687 29.496766,-1.41411319 24.3954819,1.52600036 C19.2941978,4.46806657 17.3288417,11.7479572 18.8570175,22.0292748 C19.0898806,23.6023342 19.4025153,25.2224525 19.7886652,26.8790856 C20.1237846,28.333814 20.5179508,29.8172465 20.9674487,31.3229392 C22.1442771,35.2770668 23.6947421,39.3883832 25.5764162,43.5403148 C26.3977912,45.3562845 27.2842739,47.1781122 28.2301945,49.0001352 C29.0636916,50.6079518 29.9443088,52.2136205 30.8677447,53.813236 C31.7911805,55.4128515 32.7431621,56.975757 33.7217343,58.4998047 C34.8289579,60.2300529 35.966878,61.9071888 37.1294335,63.5271119 C39.7894684,67.2303232 42.5779592,70.6254056 45.4198267,73.620584 C46.5006553,74.7611301 47.5914553,75.8444635 48.684406,76.8625781 C49.9284929,78.0255798 51.1788364,79.1028599 52.425074,80.0924658 C55.4221835,82.4694334 58.3027637,84.2342436 61.0015113,85.3667838 C67.4000634,83.750766 73.3084496,80.9026226 78.4586134,77.0912341 C79.1775365,73.7820686 79.204127,69.727965 78.5096438,65.0515501 Z M73.9210104,76.3488344 C73.3264373,78.9156002 72.2334866,80.6743571 70.6707039,81.5741408 C69.1098763,82.4758772 67.0383534,82.5412912 64.5151818,81.7740928 C61.7816318,80.9395278 58.5905675,79.1155522 55.2851247,76.4937215 C54.1737952,75.6122927 53.0603149,74.6533435 51.9468347,73.6229272 C50.8558391,72.6108658 49.7648436,71.5294851 48.6822553,70.3848384 C46.8230659,68.4200763 44.984406,66.2694214 43.1907155,63.9619683 C41.9935532,62.4215183 40.8147696,60.811749 39.6645318,59.1406663 C37.9953868,56.7187876 36.3835289,54.1684241 34.8512471,51.5159367 C33.3170101,48.8634493 31.9114246,46.1947549 30.6468083,43.5403148 C29.7724477,41.7100907 28.9653456,39.8861151 28.2299989,38.0804945 C27.1247305,35.3750901 26.17881,32.7083484 25.4045551,30.119127 C24.9550571,28.6093337 24.5608909,27.1280491 24.2318326,25.6774213 C23.8926073,24.2002373 23.6169256,22.7556627 23.4085024,21.3540465 C22.7875343,17.1857126 22.8018072,13.5131579 23.44526,10.7321858 C24.039833,8.16541997 25.134739,6.40666306 26.6955665,5.50687936 C27.5392306,5.02125391 28.5301205,4.77639089 29.6598288,4.77639089 C30.6241281,4.77639089 31.6904883,4.95388729 32.850893,5.30888008 C35.584443,6.14129716 38.7755073,7.96742069 42.0809501,10.5872987 C43.1922796,11.4687275 44.3077151,12.4276766 45.4192401,13.4621936 C46.5121909,14.4721071 47.6012312,15.5534877 48.6818643,16.6961818 C50.5430089,18.6609439 52.3816688,20.8115988 54.17751,23.1211998 C55.3746724,24.6616498 56.5534559,26.2714191 57.7036937,27.9425018 C59.370688,30.3643806 60.9827415,32.9147441 62.5148277,35.5650835 C64.0490647,38.2175709 65.4546502,40.8862653 66.7192665,43.5407054 C67.5936271,45.3728821 68.4007292,47.197053 69.1360759,49.0026736 C70.2413443,51.708078 71.1872648,54.3728671 71.9615198,56.9618932 C72.4110178,58.4716865 72.8051839,59.952971 73.1361974,61.4035989 C73.473272,62.8807829 73.7491492,64.3253575 73.9575724,65.7269737 C74.5789315,69.8953076 74.5646586,73.5678623 73.9210104,76.3488344 Z" id="Shape"></path>
                    <path d="M82.2503118,28.5011566 C80.7690605,27.9177031 79.2082329,27.3770127 77.5779962,26.8790856 C76.1479708,26.4444244 74.6647643,26.0425679 73.1344378,25.6774213 C69.1178926,24.7184721 64.7787413,24.004386 60.2372279,23.5554704 C58.2534929,23.3574712 56.2288945,23.2127794 54.1777056,23.1208093 C52.3675914,23.0372356 50.5330374,22.9942772 48.6842105,22.9942772 C46.8353836,22.9942772 45.0006341,23.0370404 43.1885648,23.1208093 C41.1354206,23.2125841 39.1108222,23.3596191 37.1270873,23.5554704 C32.5855739,24.004386 28.2483777,24.7184721 24.2318326,25.6774213 C22.7017015,26.0425679 21.218495,26.4446197 19.7882741,26.8790856 C18.1580374,27.3748648 16.5972099,27.9177031 15.1159586,28.5011566 C5.43855422,32.3164504 0.106362291,37.6581351 0.106362291,43.5403148 C0.106362291,49.4224946 5.43855422,54.7641793 15.1161541,58.581621 C16.5974054,59.1650745 18.1560822,59.7057648 19.786319,60.203692 C21.2163443,60.6383532 22.6995508,61.0402097 24.2298774,61.4034036 C28.2464225,62.3643055 32.5855739,63.076439 37.129238,63.5273071 C39.1129729,63.7231585 41.1375713,63.8680455 43.1907155,63.9619683 C45.0008296,64.0455419 46.8353836,64.0863524 48.6842105,64.0863524 C50.5330374,64.0863524 52.3656362,64.0455419 54.1757504,63.9619683 C56.2288945,63.8680455 58.2515377,63.7231585 60.2372279,63.5273071 C64.7787413,63.0783916 69.1200433,62.3643055 73.1365885,61.4034036 C74.6667195,61.038257 76.149926,60.6383532 77.5801469,60.2017394 C79.2084285,59.7059601 80.769256,59.1652698 82.2503118,58.581621 C91.9298668,54.7641793 97.2601036,49.4226899 97.2601036,43.5403148 C97.2599081,37.6581351 91.9298668,32.3164504 82.2503118,28.5011566 Z M89.7519816,48.9634253 C87.6640351,50.9119803 84.4852885,52.7584114 80.5606373,54.3070626 C79.2389294,54.8272501 77.849572,55.3128755 76.3990171,55.7576905 C74.9750528,56.1964522 73.493997,56.5983087 71.9617153,56.9615026 C69.328271,57.5879146 66.5436906,58.1020488 63.6447316,58.5 C61.7120271,58.7673186 59.7282921,58.9815249 57.7036937,59.1387137 C54.7679772,59.3734229 51.7505337,59.4917538 48.684015,59.4917538 C45.6174963,59.4917538 42.6000528,59.3734229 39.6643363,59.1408616 C37.6397379,58.9817201 35.6540478,58.7675138 33.7213433,58.5001953 C30.8223843,58.1022441 28.0378038,57.5881098 25.4043595,56.9616979 C23.8720778,56.598504 22.391022,56.1966474 20.9670577,55.7578857 C19.5165029,55.3130708 18.1273409,54.8274453 16.8054375,54.3072579 C12.8809818,52.7586067 9.70203974,50.9121756 7.61409321,48.9636205 C5.68549461,47.1660058 4.70692243,45.3420302 4.70692243,43.5405101 C4.70692243,41.73899 5.68549461,39.9148192 7.61409321,38.1173997 C9.70203974,36.1688446 12.8807863,34.3224135 16.8054375,32.7737623 C18.1271454,32.2535749 19.5165029,31.7679494 20.9670577,31.3231345 C22.391022,30.8843727 23.8720778,30.4825162 25.4043595,30.1193223 C28.0378038,29.4929104 30.8223843,28.9787761 33.7213433,28.5808249 C35.6540478,28.3135064 37.6397379,28.0993 39.6643363,27.9401586 C42.6000528,27.7075973 45.6174963,27.5892664 48.684015,27.5892664 C51.7505337,27.5892664 54.7679772,27.7075973 57.7036937,27.9423065 C59.7282921,28.0994953 61.7120271,28.3137016 63.6447316,28.5810202 C66.5436906,28.9789714 69.328271,29.4931056 71.9617153,30.1195175 C73.493997,30.4827115 74.9750528,30.884568 76.3990171,31.3233297 C77.849572,31.7681447 79.2387339,32.2537701 80.5606373,32.7739576 C84.485093,34.3226087 87.6640351,36.1690399 89.7519816,38.1175949 C91.6805802,39.9152097 92.6591524,41.7391853 92.6591524,43.5407054 C92.6591524,45.3420302 91.6805802,47.1660058 89.7519816,48.9634253 Z" id="Shape"></path>
                    <path d="M72.9709839,1.52600036 C67.8696999,-1.41411319 60.5743025,0.526240687 52.4248785,6.98796864 C51.1786409,7.9775745 49.9282974,9.05680726 48.6842105,10.2198089 C47.5912598,11.2379236 46.5002642,12.3212569 45.4196312,13.4618031 C42.5777637,16.4569815 39.7892729,19.8520638 37.1272828,23.5552752 C35.9649228,25.1751983 34.8268072,26.8525294 33.7217343,28.5806297 C32.7431621,30.1046774 31.7911805,31.6675829 30.8677447,33.2671984 C29.9443088,34.8668139 29.0638871,36.4724826 28.2301945,38.0802992 C27.2842739,39.9023222 26.3975956,41.7262978 25.5764162,43.5401196 C23.6947421,47.6941991 22.1442771,51.8033676 20.9674487,55.7574952 C20.5179508,57.2653359 20.1237846,58.7485731 19.7865145,60.2033015 C19.4025153,61.8601298 19.0898806,63.4781002 18.8570175,65.0511596 C18.1623388,69.7256218 18.1889294,73.7797254 18.908048,77.0890862 C24.0584073,80.9024273 29.966598,83.750766 36.3653456,85.3667838 C39.0640932,84.2344388 41.9446734,82.4694334 44.9417829,80.0924658 C46.1899757,79.1028599 47.4403192,78.0236271 48.6846016,76.8625781 C49.7775523,75.8444635 50.8665927,74.7630828 51.9472257,73.6225366 C54.7869425,70.6273582 57.577584,67.230128 60.2376189,63.5269166 C61.3999789,61.9067982 62.5380945,60.2296623 63.6453181,58.4996095 C64.6238903,56.9755618 65.5758719,55.4126562 66.4993078,53.8130407 C67.4246988,52.2153779 68.3031653,50.6097092 69.136858,49.0018926 C70.0827785,47.1798696 70.9694568,45.355894 71.7927869,43.5399243 C73.6723103,39.3877974 75.2229708,35.2766763 76.3996037,31.3225487 C76.846951,29.8168559 77.2413126,28.3334235 77.5783872,26.878695 C77.9645371,25.2218667 78.2750211,23.6019436 78.5100349,22.0288843 C80.0376242,11.7479572 78.0724635,4.46806657 72.9709839,1.52600036 Z M71.9619108,30.119127 C71.1876559,32.7083484 70.2417354,35.3729422 69.1364669,38.0783466 C68.4009248,39.8839672 67.5940182,41.7081381 66.7196576,43.5403148 C65.4550412,46.1947549 64.0494557,48.8634493 62.5152188,51.5159367 C60.982937,54.1662761 59.3710791,56.7166396 57.7040848,59.1385184 C56.5518918,60.8115537 55.3731082,62.421323 54.1759459,63.961773 C52.3822553,66.2694214 50.5435954,68.419881 48.6824509,70.3846431 C47.6018178,71.5271419 46.5127774,72.6085226 45.4198267,73.620584 C44.3084971,74.652953 43.1930617,75.6119022 42.0815367,76.4933309 C38.7760938,79.1151616 35.5848341,80.9391372 32.8514796,81.7737022 C30.3285035,82.5409006 28.256785,82.4754867 26.6959575,81.5737503 C25.13513,80.6739666 24.0400285,78.9152097 23.445651,76.3484439 C22.8021983,73.5674718 22.7877299,69.8949171 23.4088935,65.7265832 C23.6173166,64.324967 23.8929983,62.8803923 24.2300729,61.4032084 C24.5610865,59.9525805 24.9552526,58.471296 25.4047506,56.9615026 C26.1790055,54.3722813 27.124926,51.7055395 28.2301945,49.0001352 C28.9657366,47.1945145 29.7726432,45.3703437 30.6470038,43.5403148 C31.9116202,40.8858748 33.3172057,38.2171804 34.8514426,35.564693 C36.3837244,32.9122056 37.9955823,30.3618421 39.6647273,27.9399634 C40.8149651,26.2688807 41.991598,24.6591114 43.1887603,23.1208093 C44.9846016,20.8112082 46.8232615,18.6607486 48.6822553,16.6957913 C49.7650391,15.5511446 50.8560347,14.4697639 51.9468347,13.4598504 C53.0603149,12.4274814 54.1735997,11.4685322 55.2851247,10.5871035 C58.5905675,7.96742069 61.7818273,6.14129716 64.5151818,5.30868481 C65.6755866,4.95369202 66.7419467,4.77619563 67.706246,4.77619563 C68.8359543,4.77619563 69.8287994,5.02105864 70.6705083,5.50668409 C72.2332911,6.4064678 73.3264373,8.16522471 73.9208148,10.7319905 C74.5642676,13.5129626 74.578736,17.1855173 73.9575724,21.3538512 C73.7491492,22.7554674 73.4734676,24.2000421 73.1342422,25.677226 C72.8055749,27.1278539 72.4112133,28.6091384 71.9619108,30.119127 Z" id="Shape"></path>
                    <ellipse id="Oval" cx="48.6842105" cy="43.5403148" rx="9.12995138" ry="9.11812064"></ellipse>
                </g>
            </g>
        </g>
    </g>
</svg>