<?xml version="1.0" encoding="UTF-8"?>
<svg width="100px" height="100px" viewBox="0 0 100 100" version="1.1" xmlns="http://www.w3.org/2000/svg" xmlns:xlink="http://www.w3.org/1999/xlink">
    <!-- Generator: Sketch 49.3 (51167) - http://www.bohemiancoding.com/sketch -->
    <title>sass</title>
    <desc>Created with Sketch.</desc>
    <defs></defs>
    <g id="Welcome" stroke="none" stroke-width="1" fill="none" fill-rule="evenodd">
        <g id="Tablet-Portrait" transform="translate(-6.000000, -10.000000)" fill-rule="nonzero">
            <g id="sass" transform="translate(6.000000, 10.000000)">
                <path d="M99.6315226,49.8924506 C99.6315226,51.4340494 99.5624422,52.9573283 99.4240867,54.4622873 C99.3184228,55.6536644 99.167808,56.8306195 98.9767178,57.9935424 C95.1134666,81.6953798 74.5732217,99.7849013 49.8157613,99.7849013 C37.2051738,99.7849013 25.6907276,95.093062 16.9149807,87.35447 C13.6718968,84.4973477 10.8028203,81.2227658 8.39142608,77.6143333 C3.09052313,69.6865009 0,60.1500267 0,49.8924506 C0,22.3375907 22.3032558,0 49.8157613,0 C77.3282668,0 99.6315226,22.3375907 99.6315226,49.8924506 Z" id="Shape" fill="#FCFCFC"></path>
                <path d="M87.1247629,55.4150758 C85.6115089,55.9869829 85.6727095,55.997112 84.8722285,54.5398788 C83.849944,52.6837132 83.3061549,50.7317103 83.2591824,48.6088755 C83.220396,46.7871879 83.7193566,45.0938678 84.3467606,43.432883 C84.8476703,42.1120037 84.1960979,41.6458683 83.0514121,41.5256821 C82.2183817,41.4401687 81.359039,41.44835 80.5240596,41.5338633 C78.3529962,41.7557305 78.1391838,41.9429249 77.5628453,44.049592 C77.2207844,45.2993725 76.9477204,46.5592822 76.3795679,47.7457556 C74.9783852,50.6664553 73.3858042,53.4794354 71.7524878,56.2719624 C71.4591536,56.7747186 71.2168848,57.3160434 70.8034881,57.7455581 C69.6202108,55.974711 69.1742647,54.0188123 69.0744726,51.9670763 C68.9746805,49.9418319 69.5958475,48.0591747 70.2780202,46.1967757 C70.5082048,45.5699376 70.3168066,45.1811343 69.7749666,44.9103745 C69.5346468,44.7903831 69.2658708,44.6783781 69.0031368,44.657925 C67.6101401,44.5480628 66.2212365,44.5642304 64.8627382,44.9448525 C64.2517064,45.1137365 63.8525379,45.4557899 63.7161033,46.1416498 C63.4514203,47.4829822 63.0380237,48.7855512 62.4798115,50.0394223 C60.932059,53.5117707 59.3944417,56.9901577 57.8486383,60.4646488 C56.5045631,63.4831337 55.1807582,66.509605 53.5881773,69.4080985 C53.4761061,69.6136033 53.3825509,69.9698764 53.1014958,69.8985828 C52.8163476,69.8272892 52.9161397,69.4772494 52.9038606,69.2370718 C52.8122545,67.5273892 53.2786658,65.8969866 53.6756903,64.2646361 C54.3050434,61.6817044 54.9932582,59.1110446 55.6613976,56.5362941 C55.8527958,55.797451 55.5310052,55.3007334 54.9180243,54.9466029 C54.0362673,54.4397561 53.1584085,54.4154072 52.2033667,55.1256161 C52.3337591,54.0753018 52.3906718,53.1533549 52.3458433,52.231408 C52.2441021,50.1757762 51.2908145,48.8385344 49.6311857,48.5290111 C48.419452,48.3030533 47.2728171,48.6552358 46.1893319,49.1681211 C43.6639285,50.3629705 41.6335876,52.164205 39.9267914,54.3501522 C39.7272072,54.6045495 39.5256739,54.8386886 39.2364326,54.9953007 C36.0329495,56.7396562 32.8314155,58.4840116 29.6361185,60.2445347 C29.2858715,60.4399104 29.05978,60.3849792 28.8071812,60.1142194 C27.1982281,58.390317 25.330829,56.9675619 23.4815562,55.5245485 C20.8970961,53.5055374 18.2231739,51.592298 15.9930538,49.157992 C14.6897141,47.7332889 13.6021359,46.1720372 13.0583468,44.2874321 C12.1703528,41.2058349 12.8343992,38.3359757 14.3129599,35.6087037 C16.0624405,32.3825714 18.6570358,29.8913864 21.5182631,27.6727143 C26.0619232,24.1514732 31.0452924,21.3548556 36.2976326,19.0530076 C42.1793258,16.4782572 48.2808735,14.8194151 54.7794458,15.0697218 C57.3537707,15.1694549 59.8524719,15.6151372 62.1457417,16.8750469 C63.768923,17.7666064 64.8442221,19.0549555 65.1476915,20.945794 C65.5041755,23.1601807 64.9724706,25.2058782 63.9889724,27.1456092 C61.7915966,31.4789349 58.2988723,34.5482603 54.1705579,36.951984 C50.7327972,38.9526847 47.0243114,40.2229183 43.0996742,40.8883252 C40.9307548,41.2566754 38.7536493,41.4785426 36.5724507,41.1468131 C34.0694615,40.7661911 31.7559215,39.9297575 30.0432781,37.9146423 C29.845643,37.6826459 29.5951881,37.5217484 29.2591693,37.6845938 C28.9149645,37.8515299 28.9414717,38.1567678 28.9740211,38.4499286 C28.9983844,38.6513427 29.053543,38.8548995 29.1246838,39.0463793 C29.582909,40.2819401 30.4403027,41.2140161 31.444266,42.0282434 C34.0552334,44.1510782 37.1487892,44.7740206 40.3971008,44.837133 C43.5762206,44.9002453 46.7064189,44.4972223 49.8040677,43.7564312 C56.7914655,42.08746 62.6447024,38.6618614 66.9174425,32.7918278 C69.4713022,29.2828586 71.0884414,25.4156683 70.9457699,20.9907908 C70.8541638,18.184044 69.9090622,15.704936 67.8623491,13.6900155 C65.4285518,11.2983688 62.4084757,10.095533 59.1681553,9.37305232 C55.5592666,8.57109683 51.9139305,8.45714396 48.2317571,8.89678776 C45.028274,9.27935774 41.8980757,9.93483022 38.8512974,10.9830018 C34.1895239,12.5888607 29.6867942,14.5611219 25.3774116,16.9588071 C20.9621949,19.4133714 16.8013311,22.2244036 13.1519019,25.7454499 C9.92191151,28.8615251 7.14605325,32.2993955 5.58192865,36.5674661 C4.9139841,38.3951922 4.4333447,40.2739536 4.88143472,42.2503054 C5.45582415,44.7944737 6.71024234,46.9967833 8.35993089,48.9832643 C10.854734,51.99162 13.9157404,54.3606709 17.072446,56.6239502 C19.6079845,58.4434951 22.2616364,60.1003892 24.6973829,62.056288 C25.3877417,62.6098846 25.3836486,62.6098846 24.5710835,63.0353087 C23.6220838,63.5298836 22.662754,64.0061482 21.7301264,64.5332532 C17.9688209,66.6584255 14.33362,68.9624162 11.3661686,72.1641996 C9.90592918,73.741619 8.91405004,75.512466 8.45192675,77.4784939 C10.867208,81.0852483 13.7409093,84.3581305 16.9892209,87.2135751 C22.5308023,86.7821125 26.7729421,83.8999815 29.9072334,79.1332454 C31.4204874,76.8312026 32.1291674,74.2260648 32.3959944,71.4781449 C32.630272,69.0561108 32.3837153,66.711214 31.6709423,64.3990421 C31.5467868,63.9919284 31.0844686,63.5869574 31.2657317,63.2287364 C31.4347156,62.8989548 31.9440062,62.7320187 32.3186165,62.5163848 C33.8297266,61.6390452 35.3449296,60.7741721 36.9008682,59.8806647 C36.9681109,60.2145369 36.8377184,60.4099125 36.7808058,60.6214558 C35.8887187,63.8923901 35.2675517,67.1896212 35.9458263,70.5887281 C36.3674091,72.7055244 37.070047,74.6980439 38.4059361,76.4505806 C39.7806116,78.2539578 42.8498041,78.0482582 44.0960362,76.401688 C45.2793135,74.8384884 46.0634223,73.0758226 46.8800806,71.321338 C47.3281706,70.3606276 47.7394233,69.3837496 48.167243,68.4127153 C48.0877212,69.5810731 48.0918142,70.7207966 48.1346936,71.8566243 C48.1773782,72.9760894 48.3566921,74.0813349 48.9390727,75.0704847 C49.6395667,76.2591008 50.9573295,76.6052448 52.1813422,75.9700306 C53.4725977,75.3003384 54.3524056,74.1972357 55.0365274,73.0004383 C57.9712345,67.8530801 60.6940782,62.5956649 62.9485616,57.1062533 C63.429201,55.9400382 63.9221195,54.775771 64.4659086,53.4792406 C64.5493286,53.9046646 64.6044871,54.1651005 64.6553577,54.4257312 C65.1562674,57.041193 66.0483544,59.5162103 67.3396099,61.842602 C67.6165721,62.3412675 67.5859717,62.6852688 67.2357248,63.1634813 C66.0464054,64.781612 64.7428707,66.3041003 63.4578522,67.8427562 C62.3784601,69.1373387 61.2236391,70.3748474 60.3112818,71.7995504 C59.4926746,73.0818611 59.9629839,74.3945592 61.3255752,74.6857721 C61.745014,74.775376 62.1870619,74.8018676 62.6168307,74.7956343 C64.9976135,74.7671948 67.1949893,74.0567912 69.2418973,72.892524 C71.9972904,71.3232859 73.6308017,69.023191 73.5553729,65.7483609 C73.5206795,64.2584028 73.117418,62.8276612 72.5167162,61.4617851 C72.3843747,61.1584952 72.3781377,60.9387707 72.5757728,60.6537911 C74.4841023,57.9222337 76.1702384,55.0586079 77.7201348,52.1114166 C77.9951479,51.5924928 78.1884951,51.0163003 78.6324921,50.5096483 C78.6915488,50.7151531 78.7383263,50.8435205 78.7648336,50.9757837 C79.2577521,53.4182709 79.9216036,55.8056322 81.1680306,57.9855409 C81.5100915,58.5819916 81.3391585,58.8850868 80.8667052,59.2840192 C79.2394309,60.666063 77.8668994,62.2779604 76.7894563,64.1241916 C75.9503839,65.5611665 75.3759944,67.0957318 75.3822314,68.7791176 C75.3882735,70.6516457 76.8220057,71.7547484 78.6488642,71.3151046 C80.5531007,70.8590984 82.3187586,70.0836345 83.9031534,68.9256006 C87.3551423,66.3997428 88.3672917,63.7353884 87.2859505,60.0168238 C86.8624187,58.5533573 86.8704099,58.577901 88.3388354,58.1341666 C91.5505046,57.165275 94.8089513,57.1245636 98.0837702,57.657902 C98.4544823,57.7188717 98.8211014,57.7882174 99.1834326,57.8674974 C99.3748308,56.7053729 99.5254935,55.5288339 99.6315226,54.3380751 C95.4422025,53.314642 91.2589245,53.8458377 87.1247629,55.4150758 Z M19.2620255,81.6000815 C18.331347,81.929863 17.3640261,82.0703075 16.374096,81.9929754 C15.1418972,81.8951902 14.3599323,81.0262265 14.2804105,79.7193722 C14.1907535,78.2132464 14.6368945,76.8536036 15.2966529,75.5305816 C16.4961075,73.1288058 18.5102712,71.498598 20.5653652,69.8987776 C22.5631568,68.3418113 24.7098569,67.012556 26.8807254,65.7201162 C27.5385348,65.329365 27.5486699,65.3334556 27.6993327,66.1171007 C27.8948239,67.122613 28.0700448,68.1300733 28.0047511,69.0440337 C28.1760739,74.5250693 24.1925751,79.855726 19.2620255,81.6000815 Z M49.1548342,53.9617385 C48.8086803,56.2719624 48.0530278,58.4721294 47.2486487,60.6458047 C46.1528844,63.613449 45.0857714,66.5951184 43.7070029,69.4488099 C43.3912543,70.1062303 43.0593286,70.7595601 42.5482838,71.2948463 C42.0656953,71.8016931 41.6378755,71.7426714 41.3040007,71.1238197 C40.6522334,69.9147505 40.7337043,68.5695223 40.6278701,67.5924495 C40.6584704,62.6913074 42.3040659,58.6856205 45.0146305,55.0850995 C45.772232,54.0817299 46.739553,53.2655546 48.0206733,52.937721 C48.8901512,52.7162434 49.2912688,53.0662832 49.1548342,53.9617385 Z M68.135803,68.4719319 C67.2070735,70.0758428 65.8690405,71.2420579 64.227538,72.0724529 C64.052317,72.1599142 63.8264204,72.3145784 63.6675716,72.1090737 C63.5169089,71.915646 63.7591777,71.7874734 63.8691049,71.6653393 C65.5004723,69.8843631 67.1113744,68.0891671 68.5634278,66.1576173 C68.585842,66.1270351 68.6408057,66.1229444 68.7649611,66.070156 C68.7507329,66.9638582 68.5552417,67.7494512 68.135803,68.4719319 Z M79.4000339,68.402781 C79.1577651,68.5167338 78.8767099,68.7304198 78.6404833,68.5473161 C78.3798933,68.3459019 78.4835835,67.9896288 78.5631054,67.7169211 C78.9338175,66.4733739 79.4327781,65.2826151 80.120993,64.173279 C80.6992805,63.2390603 81.4163415,62.4228851 82.2043485,61.6616409 C82.522046,61.3564031 82.6645227,61.3930238 82.7725009,61.8326676 C82.8845721,62.2824406 82.8947073,62.7322135 82.9028933,63.1901677 C82.8826231,65.6957673 81.6096888,67.3627906 79.4000339,68.402781 Z" id="Shape" fill="#FA7268"></path>
            </g>
        </g>
    </g>
</svg>