<?xml version="1.0" encoding="UTF-8"?>
<svg width="100px" height="100px" viewBox="0 0 100 100" version="1.1" xmlns="http://www.w3.org/2000/svg" xmlns:xlink="http://www.w3.org/1999/xlink">
    <!-- Generator: Sketch 49.3 (51167) - http://www.bohemiancoding.com/sketch -->
    <title>sketch</title>
    <desc>Created with Sketch.</desc>
    <defs></defs>
    <g id="Welcome" stroke="none" stroke-width="1" fill="none" fill-rule="evenodd">
        <g id="Tablet-Portrait" transform="translate(-121.000000, -10.000000)" fill-rule="nonzero">
            <g id="sketch" transform="translate(121.000000, 10.000000)">
                <path d="M100,50 C100,51.5449219 99.9306641,53.0714844 99.7917969,54.5796875 C99.6857422,55.7736328 99.5345703,56.953125 99.3427734,58.1185547 C95.4652344,81.8714844 74.8490234,100 50,100 C37.3427734,100 25.7857422,95.2980469 16.9775391,87.5427734 C13.7224609,84.6794922 10.8427734,81.3978516 8.42246094,77.7816406 C3.10195313,69.8367188 0,60.2796875 0,50 C0,22.3857422 22.3857422,0 50,0 C77.6142578,0 100,22.3857422 100,50 Z" id="Shape-Copy" fill="#FCFCFC"></path>
                <g id="Group" transform="translate(16.000000, 16.000000)" fill="#FA7268">
                    <path d="M18.7214546,22.75 L49.3833806,22.75 L45.5268742,9.25 L23.5432126,9.25 L18.7214546,22.75 Z M50.8751331,25 L17.1250769,25 C16.7594513,25 16.4163257,24.82225 16.2059504,24.523 C15.99445,24.224875 15.9426999,23.84125 16.0653252,23.497 L21.6903345,7.747 C21.8500848,7.29925 22.2742105,7 22.7500863,7 L46.3751256,7 C46.8768765,7 47.3190022,7.333 47.4562524,7.81675 L51.9562599,23.56675 C52.0541351,23.905375 51.98551,24.271 51.7728846,24.553375 C51.5602593,24.834625 51.2283837,25 50.8751331,25 Z" id="Shape"></path>
                    <path d="M47.5411036,8.43094652 L51.5602647,22.4997486 L65.1173148,19.5946726 L57.1203917,4.60006451 L47.5411036,8.43094652 Z M50.7495326,25 C50.2458438,25 49.7881539,24.6676299 49.6444071,24.1661995 L45.0445088,8.06522437 C44.8823624,7.49708997 45.1756059,6.90020382 45.7229938,6.68169058 L57.2227394,2.08141197 C57.7712773,1.86634895 58.3888136,2.08946246 58.6648075,2.60814387 L67.864604,19.8591887 C68.0348002,20.1777579 68.04515,20.5572809 67.8922034,20.8839007 C67.7404068,21.2116706 67.4437133,21.4485849 67.0906711,21.5244895 L50.9910273,24.9746985 C50.9105291,24.9919495 50.8288809,25 50.7495326,25 Z" id="Shape"></path>
                    <path d="M2.86427374,19.5947309 L16.4031441,22.5147263 L21.3972239,8.43917547 L10.827374,4.57153291 L2.86427374,19.5947309 Z M17.1425422,25 C17.0636883,25 16.9825488,24.9919496 16.9025521,24.9746987 L0.903211738,21.524527 C0.552369061,21.4486232 0.257524076,21.2117114 0.106673153,20.8839451 C-0.0441777703,20.5573288 -0.0350352901,20.1778099 0.134100593,19.858094 L9.27658077,2.60723511 C9.54628394,2.10235998 10.1428308,1.87464864 10.6753802,2.06900832 L23.2462905,6.66923735 C23.8382661,6.88429806 24.1445392,7.54098075 23.9331193,8.13556036 L18.2190692,24.236362 C18.0533617,24.7021352 17.6168083,25 17.1425422,25 Z" id="Shape"></path>
                    <path d="M57.8649486,4.99838358 C57.7910848,4.99838358 57.7160847,4.990886 57.6410845,4.97339166 L46.3876562,2.49919179 L22.7387521,2.49919179 L10.3398673,4.97714045 C9.72622987,5.10959761 9.1307743,4.65224551 9.01827411,3.97246535 C8.90691028,3.29393478 9.31600189,2.64289532 9.9330484,2.52043492 L22.4330698,0.0212431302 C22.5001153,0.00749757536 22.5682973,0 22.6364792,0 L46.5001564,0 C46.5751565,0 46.6490203,0.00874717126 46.722884,0.0249919179 L58.0865398,2.52418371 C58.70245,2.65914006 59.1013143,3.3164275 58.9774505,3.99370848 C58.8706321,4.58851612 58.3956313,4.99838358 57.8649486,4.99838358" id="Shape"></path>
                    <path d="M2.86427374,19.5947309 L16.4031441,22.5147263 L21.3972239,8.43917547 L10.827374,4.57153291 L2.86427374,19.5947309 Z M17.1425422,25 C17.0636883,25 16.9825488,24.9919496 16.9025521,24.9746987 L0.903211738,21.524527 C0.552369061,21.4486232 0.257524076,21.2117114 0.106673153,20.8839451 C-0.0441777703,20.5573288 -0.0350352901,20.1778099 0.134100593,19.858094 L9.27658077,2.60723511 C9.54628394,2.10235998 10.1428308,1.87464864 10.6753802,2.06900832 L23.2462905,6.66923735 C23.8382661,6.88429806 24.1445392,7.54098075 23.9331193,8.13556036 L18.2190692,24.236362 C18.0533617,24.7021352 17.6168083,25 17.1425422,25 Z" id="Shape"></path>
                    <path d="M34,68 C33.6316638,68 33.2871279,67.8210918 33.0751929,67.5179735 L0.208274822,20.7967299 C-0.153261277,20.2839358 -0.0319936825,19.5728612 0.478010219,19.2093472 C0.989147463,18.8458331 1.69748621,18.9689037 2.05788897,19.4816978 L34,64.8879094 L65.942111,19.4816978 C66.3025138,18.9677642 67.0097192,18.8458331 67.5219898,19.2093472 C68.0319937,19.5728612 68.1532613,20.2839358 67.7917252,20.7967299 L34.9248071,67.5179735 C34.7128721,67.8210918 34.3683362,68 34,68" id="Shape"></path>
                    <path d="M33.8827153,68 C33.4367846,68 33.0165591,67.7311266 32.8422103,67.2878792 L16.0778973,24.5381332 C15.8521379,23.9610117 16.1337784,23.3062656 16.7071179,23.0790169 C17.2849279,22.8506433 17.9309127,23.1341416 18.1577897,23.7123881 L34.9221027,66.4621341 C35.1478621,67.0392557 34.8662216,67.6940018 34.2928821,67.9212505 C34.15765,67.9752501 34.019065,68 33.8827153,68" id="Shape"></path>
                    <path d="M34.1172847,68 C33.980935,68 33.84235,67.9752501 33.7071179,67.9212505 C33.1337784,67.6940018 32.8521379,67.0392557 33.0778973,66.4621341 L49.8422103,23.7123881 C50.0690873,23.1341416 50.7173074,22.8506433 51.2928821,23.0790169 C51.8662216,23.3062656 52.1478621,23.9610117 51.9221027,24.5381332 L35.1577897,67.2878792 C34.9834409,67.7311266 34.5632154,68 34.1172847,68" id="Shape"></path>
                </g>
            </g>
        </g>
    </g>
</svg>