<?xml version="1.0" encoding="UTF-8"?>
<svg width="100px" height="100px" viewBox="0 0 100 100" version="1.1" xmlns="http://www.w3.org/2000/svg" xmlns:xlink="http://www.w3.org/1999/xlink">
    <!-- Generator: Sketch 49.3 (51167) - http://www.bohemiancoding.com/sketch -->
    <title>wordpress</title>
    <desc>Created with Sketch.</desc>
    <defs></defs>
    <g id="Welcome" stroke="none" stroke-width="1" fill="none" fill-rule="evenodd">
        <g id="Tablet-Portrait" transform="translate(-21.000000, -130.000000)">
            <g id="wordpress" transform="translate(21.000000, 130.000000)">
                <circle id="Oval-3" fill="#FA7268" cx="50" cy="50" r="50"></circle>
                <g id="wordpress-" fill="#FCFCFC" fill-rule="nonzero">
                    <path d="M0.303118965,50 C0.303118965,42.7953581 1.85446427,35.9582719 4.60737608,29.7744233 L28.3129638,94.7221102 C11.7379059,86.6759462 0.303118965,69.6689853 0.303118965,50 Z M50,99.6956291 C45.1226265,99.6956291 40.4105027,98.9850549 35.9595238,97.6775783 L50.8740714,54.3540824 L66.1491641,96.1993435 C66.248314,96.4469679 66.3712498,96.6655483 66.499694,96.8758663 C61.3393927,98.6998738 55.7829926,99.6956291 50,99.6956291 Z M90.162467,49.0680912 C92.997503,41.9781226 93.9461872,36.3100537 93.9461872,31.2701845 C93.9461872,29.4401679 93.8235017,27.7423512 93.6026679,26.1572048 C97.482283,33.239662 99.6886185,41.357935 99.6886185,50.0012519 C99.6886185,68.3377227 89.7558523,84.3409161 74.9857731,92.9506822 L90.162467,49.0680912 Z M79.4470176,33.7854871 C81.333119,37.0934881 83.5474666,41.3476695 83.5474666,47.491708 C83.5474666,51.7481428 82.2818032,57.0977302 79.7649983,63.5597494 L74.805751,80.1155282 L56.8453487,26.7027796 C59.8438818,26.5397832 62.5314449,26.2283123 62.5314449,26.2283123 C65.2097439,25.9103316 64.8895097,21.9818926 62.2194732,22.1291152 C62.2194732,22.1291152 54.1670497,22.7648263 48.9711947,22.7648263 C44.0868105,22.7648263 35.8854118,22.1291152 35.8854118,22.1291152 C33.2058609,21.9818926 32.8951411,26.0728272 35.5669303,26.2283123 C35.5669303,26.2283123 38.1072707,26.5397832 40.7863209,26.7027796 L48.5215148,47.9166003 L37.6490781,80.5256482 L19.547963,26.7027796 C22.5459954,26.5397832 25.240569,26.2283123 25.240569,26.2283123 C27.9206207,25.9103316 27.5928752,21.9818926 24.9220876,22.1291152 C24.9220876,22.1291152 16.8761739,22.7648263 11.673809,22.7648263 C10.7424009,22.7648263 9.64749566,22.7402892 8.47973025,22.7069888 C17.3681677,9.21559272 32.6427596,0.304370858 50.0002504,0.304370858 C62.93831,0.304370858 74.7183689,5.25360304 83.5559795,13.3568534 C83.3434081,13.3400781 83.1308367,13.3147898 82.918015,13.3147898 C78.0253684,13.3147898 74.5698944,17.564214 74.5698944,22.1303671 C74.5706456,26.2298146 76.9312142,29.6943021 79.4470176,33.7854871 Z" id="WordPress"></path>
                </g>
            </g>
        </g>
    </g>
</svg>